<?xml version="1.0" encoding="utf-8"?>
<!-- Generator: Adobe Illustrator 25.4.1, SVG Export Plug-In . SVG Version: 6.00 Build 0)  -->
<svg version="1.1" id="Layer_1" xmlns="http://www.w3.org/2000/svg" xmlns:xlink="http://www.w3.org/1999/xlink" x="0px" y="0px"
	 viewBox="0 0 2111 634.7" style="enable-background:new 0 0 2111 634.7;" xml:space="preserve">
<style type="text/css">
	.st0{fill:#FFFFFF;}
</style>
<path d="M192.3,159.2c0,32-0.1,61.8,0.4,91.5c0.9,3.3,3.5,5.7,6.7,6.6c40.6,0.4,81.1,0.5,121.7,0c3.4,0,7.8-5.4,9.7-9.5
	c27.9-58.4,70.8-101.2,128.9-127.4c148.4-66.7,323.8,31,348.4,193.8c20.9,138.3-64.2,264.1-198.9,293.3c-16.4,3.4-33.2,5-50,4.9
	c-76.4,0.5-153,0.3-229.5,0.3c-99.6-0.2-176.4-78.4-176.7-179.6c0-16.7,0.4-33.4-0.3-50.1c-0.4-5.3-2.4-10.3-5.9-14.4
	c-20.7-22.1-41.9-43.8-63.5-65.1c-4.3-3.5-9.6-5.7-15.1-6.2c-9-0.8-17.9-0.9-26.9-0.3c-9.7,0.3-17.9-1.9-22-12
	c-4-10.1,0.4-18.3,7.6-25.5c28.3-28.5,56.3-57.1,84.3-85.9c4.9-5,9.7-10.3,15-15c16.3-14.9,27.6-31.4,33.3-54.6
	c12.6-51.5,59-84.9,111.1-85.3c53.9-0.3,107.6,0,161.5,0c17.7,0,24.9,8.1,23.6,25.9c-4.7,66.7-55,114.5-120.6,114.6
	c-42.5,0-85,0-127.5,0H192.3z M379,245c92.5-74.3,204-56.4,269.3,3.9c34.9,32.3,57.4,72,65.3,119.3c10.7,63.7-5.7,120.7-46.7,172.7
	c58-30.3,117.7-114,103.3-216.2C757.1,230.6,679,152.8,588,141C487.7,127.7,406.6,189.1,379,245z M306.9,570.5
	c3.8-91.2-4.2-181.7,5.3-272.5H192.4v12.6c0,40.7-0.3,81.7,0,122.6c0.3,44.3,17.3,80.9,51,108.9
	C261.2,557.6,283.4,567.5,306.9,570.5z M439.2,571.9c74.8,6.6,127.3-19.2,153.1-73.7c23.3-49.1,14.5-107.2-22.1-147.1
	c-30.3-32.8-84.4-50.8-115.5-37.8c33.1,37.6,49.5,81.2,46.7,131.8C498.6,495.7,477,536.7,439.2,571.9z M349.2,570
	c0.9,0.3,1.8,0.4,2.8,0.3c54.4-12.1,90.1-45.2,105.8-99.4c14.4-49.3-3.9-109.2-41.6-138.9c-3.7-1.9-8.1-1.9-11.7,0.1
	c-29.9,20.4-51.8,48.6-54.4,84.9C346.6,467.4,349.2,518.3,349.2,570z M625.9,524.5c37.8-26.7,60.6-99.2,47.7-156.8
	c-15.3-68.5-68.5-119.6-139.1-130.2c-47.3-6.9-90.3,5.7-126.8,39.2c4.9,1.9,10,3,14.1,1.6c27.9-9.3,57.7-11.4,86.5-5.9
	c86,14.9,149.7,106.3,133.8,193.9C638.6,486.7,631.3,506.3,625.9,524.5z M196.4,118.4c2.1,0.5,4.3,0.8,6.4,0.9
	c45.9,0,92,0.3,137.9,0c7.8-0.1,15.5-1.6,22.8-4.5c25.4-10,42.5-27.8,49.7-54.7c-1.8-1-2.4-1.6-3-1.6c-47.6,0-95.2-1.3-142.6,0.4
	C232.3,59.8,202.6,86.2,196.4,118.4z M152.5,257v-63.7L90,257H152.5z M152.5,298h-15.4l15.4,18.9V298z"/>
<path d="M243.1,210.7c-0.6-11.7,8.5-21.8,20.3-22.3c0.6,0,1.1,0,1.8,0c12.1-0.3,22.1,9.5,22.2,21.6c0,0.3,0,0.6,0,0.9
	c0,12.4-10,22.5-22.3,22.6C252.4,233.4,243.2,223.8,243.1,210.7z"/>
<path class="st0" d="M379,245c27.6-55.8,108.9-117.2,209.2-104.1c90.8,12,168.9,89.8,182.3,183.8c14.4,102.2-45.4,185.9-103.3,216.2
	c41-52,57.4-109,46.7-172.7c-7.9-47.3-30.4-87-65.3-119.3C583,188.5,471.3,170.6,379,245z"/>
<path class="st0" d="M306.9,570.5c-23.6-3-45.7-12.9-63.7-28.3c-33.6-28.1-50.7-64.6-51-108.9c-0.3-40.7,0-81.7,0-122.6v-12.6H312
	C302.8,388.8,310.7,479.3,306.9,570.5z"/>
<path class="st0" d="M439.2,571.9c37.8-35.2,59.4-76.3,62.2-126.9s-13.6-94.1-46.7-131.7c31.2-13,85.3,5,115.6,37.8
	c36.7,40,45.4,98.1,22.2,147.1C566.4,552.6,514.1,578.4,439.2,571.9z"/>
<path class="st0" d="M349.2,570c0-51.7-2.5-102.6,0.9-153c2.5-36.3,24.5-64.5,54.4-84.9c3.7-2,8.1-2,11.7-0.1
	c37.7,29.6,56,89.6,41.6,138.9c-15.9,54.1-51.7,87.2-105.8,99.4C351,570.2,350.1,570.2,349.2,570z"/>
<path class="st0" d="M625.9,524.5c5.2-18.3,12.6-37.8,16.3-58.2c15.9-87.5-47.8-179-133.7-193.9c-28.9-5.4-58.7-3.3-86.5,6.1
	c-4.2,1.4-9.2,0.3-14.1-1.6c36.3-33.7,79.3-46.3,126.7-39.2c70.8,10.5,123.9,61.7,139.1,130.2C686.5,425.5,664,497.8,625.9,524.5z"
	/>
<path class="st0" d="M196.4,118.4c6.2-32.2,35.8-58.5,71.3-59.8c47.4-1.8,95-0.5,142.6-0.4c0.6,0,1.3,0.6,3,1.6
	c-7.2,27.2-24.5,44.9-49.7,54.7c-7.3,2.9-15,4.5-22.8,4.7c-45.9,0.4-92,0.3-137.9,0C200.7,119,198.6,118.7,196.4,118.4z"/>
<path class="st0" d="M152.5,257H90l62.6-63.7V257H152.5z"/>
<path class="st0" d="M152.5,298v18.9L137,298H152.5z"/>
<path d="M902.8,346.1l-24.3,114.5h-50l56.1-265.3h60.9c44.3,0,64,23.1,54.4,69l-3.2,15.4c-6.6,32-20.1,43.4-35.3,47.8
	c11.5,7.8,19,20.1,9.8,61.2c-5.8,25.5-12.5,58-13.2,71.9h-49.2c-0.4-12,5.4-40,14.1-81.6c5.6-26.2,3-32.8-13.2-32.8L902.8,346.1z
	 M911.1,306.7h6.8c18,0,24.1-5.4,28.8-29l3-16.3c3.4-17.8,1.3-26.4-15.5-26.4h-7.9L911.1,306.7z"/>
<path d="M1041.4,195.4h50.1l-22,103.4h31.8l22-103.4h50.7l-56.3,265.2H1067l24.9-118.1h-31.8l-24.9,118.1H985L1041.4,195.4z"/>
<path d="M1205.8,195.4h58.8c48.4,0,65.6,28.8,56.6,73l-4.3,21.1c-8.7,43.5-26.1,65-77.8,65h-17.2l-22.3,106.1h-50.1L1205.8,195.4z
	 M1230.9,313.8h10.3c16.9,0,21.8-8.7,25.5-26.2l4.7-22.8c3.8-18,3-29.9-14-29.9h-10L1230.9,313.8z"/>
<path d="M1460.6,321l-16,76.2c-9.6,45.7-28.8,66.6-73.8,66.6c-44.2,0-63.7-25.2-54.2-70.8l17.2-81c9.5-45,32-64,72.5-64
	C1449,248.1,1470.7,273.2,1460.6,321z M1384.8,309.9l-19.6,92.2c-2.9,13.1-0.3,21.8,10.8,21.8c10.7,0,14.6-9.3,17.4-22.3l19.4-91.8
	c2.5-11.9,2.1-22-10.6-22C1390.8,287.6,1387.4,297.3,1384.8,309.9z"/>
<path d="M1598.4,394.3c-7.4,34.8-11.9,54.6-13.2,66.4H1536c0.4-4.4,1.1-10.8,2.3-16.7c-12,16.3-23.2,19.9-39.7,19.9
	c-17.9,0-40.2-10.3-29.8-59.7l32.3-153h50.1l-31.8,148.7c-3,14.5-0.8,21.4,8.8,21.4c11.1,0,16.3-9.2,20.3-28l29.9-142.2h50.5
	L1598.4,394.3z"/>
<path d="M1614.3,460.7l58.7-276.9h50l-58.7,276.9H1614.3z"/>
<path d="M1726,251.3h21.1l10.8-47.4h49.5l-10.8,47.4h23.6l-8.8,42h-23.6L1762.4,407c-2,9.6-0.5,15,10.8,15c3.7,0.1,7.4-0.1,11.1-0.6
	l-8.2,38.6c-9.5,2.3-19,3.4-28.8,3.4c-30.5,0-45-10.8-37.2-47.6l27.2-122.6h-19.9L1726,251.3z"/>
<path d="M1826.1,322.4c7.4-35.8,12.2-57.4,14.5-71h47.7c-1,10-2.6,19.8-4.9,29.6c10.8-24.7,29.6-32.7,48.7-32.8l-12.9,59.2
	c-30.8-1.1-42.8,11.7-50.2,46.5l-22.2,106.7h-50L1826.1,322.4z"/>
<path d="M1996,251.3c-2.5,41.9-9,130.3-12.4,155h1.4c12.4-41.5,32.4-103.7,50.2-155h51.2l-87.2,215.3
	c-21.4,52.1-37.2,64.2-73.8,64.2c-8.6,0-17-0.9-25.4-2.5l9.3-42.8c4.2,0.8,8.3,1.1,12.5,1c10.8,0,16.1-3.8,21.8-18.3l2-217.1h50.2
	v0.2H1996z"/>
</svg>
