<?xml version="1.0" encoding="utf-8"?>
<!-- Generator: Adobe Illustrator 25.4.1, SVG Export Plug-In . SVG Version: 6.00 Build 0)  -->
<svg version="1.1" id="Layer_1" xmlns="http://www.w3.org/2000/svg" xmlns:xlink="http://www.w3.org/1999/xlink" x="0px" y="0px"
	 viewBox="0 0 318.2 241.7" style="enable-background:new 0 0 318.2 241.7;" xml:space="preserve">
<style type="text/css">
	.st0{fill:#B11313;}
	.st1{fill:#FFFFFF;}
	.st2{fill:#FFCD2E;}
	.st3{fill:#E24800;}
	.st4{fill:#840200;}
	.st5{fill:#C10130;}
	.st6{fill:#F57716;}
</style>
<path d="M69.4,58.6c0,12.7-0.1,24.5,0.1,36.3c0.4,1.3,1.4,2.3,2.7,2.6c16.1,0.2,32.2,0.2,48.3,0c1.3,0,3.1-2.2,3.9-3.8
	c11-23.2,28-40.2,51.2-50.6c58.8-26.5,128.5,12.3,138.3,76.9c8.3,54.9-25.5,104.8-78.9,116.4c-6.5,1.3-13.2,2-19.8,1.9
	c-30.4,0.2-60.7,0.1-91.1,0.1c-39.5-0.1-70-31.1-70.2-71.3c0-6.6,0.2-13.2-0.1-19.9c-0.1-2.1-0.9-4.1-2.3-5.7
	c-8.3-8.7-16.7-17.3-25.3-25.7c-1.7-1.4-3.8-2.3-6.1-2.5c-3.5-0.3-7.1-0.3-10.7-0.1c-3.8,0.1-7.1-0.8-8.7-4.8s0.2-7.2,3-10.1
	C14.9,87,26.1,75.6,37.2,64.2c2-2,3.9-4.1,5.9-6c6.5-5.9,11-12.5,13.2-21.7c5-20.4,23.5-33.7,44.1-33.8c21.4-0.1,42.8,0,64.1,0
	c7,0,9.9,3.2,9.4,10.2C172,39.6,152,58.6,126,58.7c-16.9,0-33.8,0-50.6,0L69.4,58.6z M143.5,92.7c36.6-29.5,81-22.4,106.9,1.5
	c13.9,12.8,22.8,28.6,25.9,47.4c4.2,25.3-2.2,47.9-18.5,68.6c23-12,46.8-45.2,41-85.8c-5.2-37.3-36.2-68.2-72.3-73
	C186.6,46.2,154.4,70.5,143.5,92.7z M114.9,222c1.5-36.2-1.6-72.1,2.1-108.2H69.4v5c0,16.2-0.1,32.4,0,48.7
	c0.1,17.6,6.9,32.1,20.2,43.2C96.7,216.8,105.5,220.7,114.9,222L114.9,222z M167.4,222.5c29.7,2.6,50.5-7.6,60.8-29.3
	c9.2-19.4,5.7-42.5-8.8-58.4c-12-13-33.5-20.1-45.9-15c13.1,14.9,19.6,32.2,18.5,52.3C191,192.2,182.4,208.5,167.4,222.5
	L167.4,222.5z M131.6,221.8c0.4,0.1,0.7,0.1,1.1,0.1c21.5-4.8,35.8-17.9,42-39.4c5.7-19.6-1.6-43.4-16.5-55.1
	c-1.5-0.8-3.2-0.8-4.7,0c-11.9,8.1-20.6,19.3-21.6,33.7C130.6,181,131.6,201.2,131.6,221.8L131.6,221.8z M241.5,203.7
	c15-10.6,24-39.3,18.9-62.2c-6.1-27.2-27.2-47.5-55.2-51.7c-18.8-2.8-35.9,2.2-50.3,15.5c2,0.7,4,1.2,5.6,0.7
	c11.1-3.7,22.9-4.5,34.4-2.4c34.1,5.9,59.4,42.2,53.1,77C246.5,188.6,243.6,196.4,241.5,203.7L241.5,203.7z M71,42.4
	c0.8,0.2,1.7,0.3,2.5,0.4c18.2,0,36.5,0.1,54.7-0.1c3.1-0.1,6.2-0.7,9-1.8c10-4,16.9-11,19.8-21.8c-0.7-0.4-1-0.7-1.2-0.7
	c-18.9,0-37.8-0.5-56.6,0.2C85.2,19.2,73.4,29.7,71,42.4z M53.5,97.5V72.2L28.7,97.5H53.5z M53.6,113.7h-6.2l6.2,7.6V113.7z"/>
<path d="M89.5,79.1c-0.2-4.7,3.4-8.6,8-8.9c0.2,0,0.5,0,0.7,0c4.8-0.1,8.8,3.7,8.8,8.5c0,0.1,0,0.2,0,0.4c0,4.9-3.9,8.9-8.9,9
	C93.2,88.1,89.6,84.3,89.5,79.1z"/>
<path class="st0" d="M143.5,92.7c10.9-22.1,43.2-46.5,83-41.3c36.1,4.7,67.1,35.6,72.3,73c5.7,40.6-18,73.8-41,85.8
	c16.3-20.6,22.8-43.3,18.5-68.6c-3.1-18.8-12.1-34.6-25.9-47.4C224.5,70.3,180.1,63.2,143.5,92.7z"/>
<path class="st1" d="M114.9,221.9c-9.3-1.2-18.1-5.1-25.3-11.2c-13.3-11.1-20.1-25.6-20.2-43.2c-0.1-16.2,0-32.4,0-48.7v-5H117
	C113.2,149.8,116.4,185.7,114.9,221.9z"/>
<path class="st2" d="M167.4,222.5c15-14,23.6-30.3,24.7-50.3c1.1-20-5.4-37.4-18.5-52.3c12.4-5.1,33.9,2,45.9,15
	c14.5,15.8,18,38.9,8.8,58.4C217.9,214.8,197,225.1,167.4,222.5z"/>
<path class="st3" d="M131.6,221.7c0-20.5-1-40.7,0.3-60.8c1-14.4,9.7-25.6,21.6-33.7c1.5-0.8,3.2-0.8,4.7,0
	c15,11.8,22.2,35.5,16.5,55.1c-6.3,21.5-20.5,34.6-42,39.4C132.3,221.9,132,221.8,131.6,221.7z"/>
<path class="st4" d="M241.5,203.7c2.1-7.2,5-15,6.5-23.1c6.3-34.7-19-71.1-53.1-77c-11.5-2.1-23.3-1.3-34.3,2.4
	c-1.7,0.6-3.6,0.1-5.6-0.7c14.4-13.3,31.5-18.4,50.3-15.5c28,4.1,49.2,24.5,55.2,51.7C265.5,164.3,256.5,193,241.5,203.7z"/>
<path class="st5" d="M71,42.4c2.4-12.8,14.2-23.2,28.3-23.8c18.8-0.7,37.7-0.2,56.6-0.2c0.2,0,0.5,0.3,1.2,0.7
	c-2.9,10.8-9.7,17.8-19.8,21.8c-2.9,1.1-5.9,1.8-9,1.8c-18.2,0.2-36.5,0.1-54.7,0.1C72.7,42.7,71.9,42.6,71,42.4z"/>
<path class="st6" d="M53.5,97.5H28.7l24.8-25.3V97.5z"/>
<path class="st1" d="M53.6,113.7v7.6l-6.2-7.6H53.6z"/>
</svg>
